<svg width="0" height="0" xmlns="http://www.w3.org/2000/svg">
  <symbol id="customIcon" viewBox="0 0 100 100">
    <path fill-rule="evenodd" clip-rule="evenodd" d="M62.76 88.126H25.592a13.209 13.209 0 0 1-13.167-13.209V37.876a13.208 13.208 0 0 1 13.167-13.167h11.125a2.083 2.083 0 1 1 0 4.167H25.593a9.04 9.04 0 0 0-9 9v37.041a9.042 9.042 0 0 0 9 9.042h37.166a9.041 9.041 0 0 0 9.042-9.042v-7.416a2.083 2.083 0 1 1 4.167 0v7.416a13.208 13.208 0 0 1-13.209 13.209ZM73.718 39.376a2.083 2.083 0 0 1-2.084-2 8.793 8.793 0 0 0-1.416-4.334 8.584 8.584 0 0 0-2.667-2.666 9.042 9.042 0 0 0-4.167-1.417 2.081 2.081 0 0 1-2-2.167 2.042 2.042 0 0 1 1.917-2.083 13 13 0 0 1 6.5 2.083 12.5 12.5 0 0 1 3.917 3.917 13 13 0 0 1 2.083 6.5 2.083 2.083 0 0 1-2 2.167h-.083Z" fill="currentColor"/>
    <path fill-rule="evenodd" clip-rule="evenodd" d="M54.426 58.5H44.134a2.083 2.083 0 0 1-2.083-2.083v-10.5a2.083 2.083 0 0 1 .583-1.458l20.834-20.833a2.083 2.083 0 0 1 2.916 0l3.625 3.625a2.083 2.083 0 0 1 0 2.916 2.084 2.084 0 0 1-2.958 0l-2.125-2.083-18.833 18.708v7.542h7.541L72.51 35.417l-2.125-2.125a2.083 2.083 0 0 1 0-2.916 2.084 2.084 0 0 1 2.959 0l3.583 3.583a2.085 2.085 0 0 1 0 2.958L56.093 57.751a2.208 2.208 0 0 1-1.667.75Z" fill="currentColor"/>
    <path fill-rule="evenodd" clip-rule="evenodd" d="M75.593 37.5a2.166 2.166 0 0 1-1.5-.583l-3.584-3.625a2.084 2.084 0 0 1 0-2.916 2.083 2.083 0 0 1 2.959 0l2.125 2.125 7.5-7.542-7.5-7.5-7.542 7.5 2.125 2.125a2.084 2.084 0 0 1 0 2.917 2.082 2.082 0 0 1-2.958 0l-3.584-3.584a1.96 1.96 0 0 1-.625-1.458 2.042 2.042 0 0 1 .625-1.5l10.459-10.417a2.083 2.083 0 0 1 2.958 0L87.509 23.46a2.125 2.125 0 0 1 0 2.958l-10.458 10.5a2.083 2.083 0 0 1-1.458.584Z" fill="currentColor"/>
  </symbol>

  <symbol id="resReadyIcon" viewBox="0 0 100 100">
    <path fill-rule="evenodd" clip-rule="evenodd" d="M76.268 71.617H22.685A15.584 15.584 0 0 1 7.1 56.033V26.867a15.625 15.625 0 0 1 15.584-15.792h53.583a15.625 15.625 0 0 1 15.584 15.583v29.375a15.584 15.584 0 0 1-15.584 15.584ZM22.685 15.242a11.417 11.417 0 0 0-11.417 11.416v29.375A11.417 11.417 0 0 0 22.685 67.45h53.583a11.417 11.417 0 0 0 11.417-11.417V26.867a11.415 11.415 0 0 0-11.417-11.625H22.685Z" fill="currentColor"/>
    <path fill-rule="evenodd" clip-rule="evenodd" d="M89.767 55.783H9.184A2.125 2.125 0 0 1 7.101 53.7a2.083 2.083 0 0 1 2.083-2.083h80.583a2.083 2.083 0 1 1 0 4.166ZM49.42 87.742a2.083 2.083 0 0 1-2.083-2.084V69.533a2.083 2.083 0 1 1 4.167 0v16.125a2.083 2.083 0 0 1-2.083 2.084Z" fill="currentColor"/>
    <path fill-rule="evenodd" clip-rule="evenodd" d="M73.494 87.742H25.16a2.083 2.083 0 0 1 0-4.167h48.334a2.083 2.083 0 1 1 0 4.167Z" fill="currentColor"/>
  </symbol>

  <symbol id="moddesIcon" viewBox="0 0 100 100">
    <path fill-rule="evenodd" clip-rule="evenodd" d="M66.492 67.283a2.084 2.084 0 0 1-1.75-.916 2.083 2.083 0 0 1 .625-2.917 29.499 29.499 0 1 0-31.917 0 2.084 2.084 0 1 1-2.25 3.5 33.666 33.666 0 1 1 36.417 0c-.332.223-.725.34-1.125.333Z" fill="currentColor"/>
    <path fill-rule="evenodd" clip-rule="evenodd" d="M66.492 83.742H32.325a2.125 2.125 0 0 1-2.083-2.084V65.2a2.125 2.125 0 0 1 2.083-2.083 2.083 2.083 0 0 1 2.083 2.083v14.375h30V65.2a2.083 2.083 0 0 1 2.084-2.083 2.125 2.125 0 0 1 2.083 2.083v16.458a2.125 2.125 0 0 1-2.083 2.084Z" fill="currentColor"/>
    <path fill-rule="evenodd" clip-rule="evenodd" d="M38.492 93.908a2.083 2.083 0 0 1-2.084-2.083v-7.333a2.126 2.126 0 0 1 2.084-2.084 2.083 2.083 0 0 1 2.083 2.084v7.333a2.083 2.083 0 0 1-2.083 2.083ZM60.325 93.908a2.083 2.083 0 0 1-2.083-2.083v-7.333a2.083 2.083 0 0 1 2.083-2.084 2.125 2.125 0 0 1 2.083 2.084v7.333a2.083 2.083 0 0 1-2.083 2.083ZM49.408 83.742a2.083 2.083 0 0 1-2.083-2.084V48.325a2.083 2.083 0 0 1 4.167 0v33.333a2.083 2.083 0 0 1-2.084 2.084Z" fill="currentColor"/>
  </symbol>

  <symbol id="cleanIcon" viewBox="0 0 100 100">
    <path fill-rule="evenodd" clip-rule="evenodd" d="M29.492 87.408a7.374 7.374 0 0 1-4.167-1.416 7.292 7.292 0 0 1-2.625-8.334l5.25-16.166a3.167 3.167 0 0 0-1.167-3.542l-13.75-10A7.333 7.333 0 0 1 17.2 34.7h17a3.167 3.167 0 0 0 3-1.958l5.25-16.209a7.167 7.167 0 0 1 6.958-5.125 7.209 7.209 0 0 1 6.959 5.042l5.25 16.292a3.208 3.208 0 0 0 3 2.166h17.041a7.333 7.333 0 0 1 4.167 13.25l-13.75 10a3.166 3.166 0 0 0-1.167 3.542L76.2 77.908a7.332 7.332 0 0 1-2.667 8.334 7.167 7.167 0 0 1-8.625 0l-13.75-10a3.208 3.208 0 0 0-3.708 0l-13.792 10a7.166 7.166 0 0 1-4.166 1.166ZM17.158 38.992a3.042 3.042 0 0 0-3 2.166 3.125 3.125 0 0 0 1.125 3.542l13.792 10a7.375 7.375 0 0 1 2.667 8.333l-5.25 16.042a3.083 3.083 0 0 0 1.125 3.542 3.042 3.042 0 0 0 3.708 0l13.917-10a7.25 7.25 0 0 1 8.583 0l13.667 10.125a3.042 3.042 0 0 0 3.708 0 3.084 3.084 0 0 0 1.125-3.542l-5.25-16.167a7.374 7.374 0 0 1 2.667-8.333l13.75-10a3.167 3.167 0 0 0-1.834-5.708H64.617a7.333 7.333 0 0 1-6.875-5.042l-5.334-16.208a3.041 3.041 0 0 0-3-2.167 3.043 3.043 0 0 0-3 2.167L41.075 33.95a7.334 7.334 0 0 1-6.875 5.042H17.158Z" fill="currentColor"/>
  </symbol>

  <symbol id="shipIcon" viewBox="0 0 100 100">
    <path fill-rule="evenodd" clip-rule="evenodd" d="M49.3 90.228c-10.498 0-20.567-4.229-27.99-11.755-7.423-7.526-11.594-17.734-11.594-28.379 0-10.643 4.17-20.851 11.594-28.378C28.733 14.19 38.802 9.961 49.3 9.961c.552 0 1.082.223 1.473.62.39.395.61.933.61 1.493s-.22 1.097-.61 1.493a2.07 2.07 0 0 1-1.473.619 35.026 35.026 0 0 0-16.77 4.166 35.59 35.59 0 0 0-12.833 11.71 36.225 36.225 0 0 0-5.85 16.47 36.36 36.36 0 0 0 2.527 17.316 35.875 35.875 0 0 0 10.301 14.048 35.206 35.206 0 0 0 15.628 7.441 34.95 34.95 0 0 0 17.24-.934A35.334 35.334 0 0 0 74.3 75.315a2.087 2.087 0 0 1 1.496-.747 2.056 2.056 0 0 1 1.558.606 2.116 2.116 0 0 1 .62 1.57 2.136 2.136 0 0 1-.716 1.528 39.19 39.19 0 0 1-12.792 8.831A38.744 38.744 0 0 1 49.3 90.228Z" fill="currentColor"/>
    <path fill-rule="evenodd" clip-rule="evenodd" d="M48.05 63.613a1.934 1.934 0 0 1-1.459-.591L29.925 46.124a2.115 2.115 0 0 1-.617-1.5 2.14 2.14 0 0 1 .617-1.5 2.11 2.11 0 0 1 1.479-.608 2.11 2.11 0 0 1 1.479.608l15.167 15.42 33.958-34.43a2.078 2.078 0 0 1 1.48-.622c.554 0 1.086.224 1.478.622.393.397.613.937.613 1.5 0 .562-.22 1.101-.613 1.5L49.55 63.021a2.08 2.08 0 0 1-1.5.591Z" fill="currentColor"/>
  </symbol>

  <symbol id="freeIcon" viewBox="0 0 100 100">
    <path fill-rule="evenodd" clip-rule="evenodd" d="M67.108 63.2H49.65a2.083 2.083 0 0 1 0-4.167h17.458a2.083 2.083 0 0 1 0 4.167ZM78.858 61.908a1.625 1.625 0 0 1-.75 0 2.04 2.04 0 0 1-1.208-2.666l9.917-26.5a2.083 2.083 0 0 1 2.666-1.209 2.167 2.167 0 0 1 1.25 2.709l-9.916 26.375a2.168 2.168 0 0 1-1.959 1.291ZM36.317 62.7a2.041 2.041 0 0 1-1.959-1.417l-13.083-39.75h-12.5a2.083 2.083 0 0 1-2.083-2.083 2.125 2.125 0 0 1 2.083-2.083h14a2.125 2.125 0 0 1 1.958 1.416L38.442 59.95a2.042 2.042 0 0 1-1.292 2.625c-.265.104-.55.147-.833.125Z" fill="currentColor"/>
    <path fill-rule="evenodd" clip-rule="evenodd" d="M42.733 81.45a12.5 12.5 0 1 1 0-24.998 12.5 12.5 0 0 1 0 24.998Zm0-20.833a8.334 8.334 0 1 0 0 16.668 8.334 8.334 0 0 0 0-16.668ZM74.025 81.45a12.5 12.5 0 1 1 0-25 12.5 12.5 0 0 1 0 25Zm0-20.833a8.334 8.334 0 1 0 0 16.668 8.334 8.334 0 0 0 0-16.668Z" fill="currentColor"/>
  </symbol>

  <symbol id="facebookIcon" viewBox="0 0 39 39">
    <path fill-rule="evenodd" clip-rule="evenodd" d="M20.397 27.997v-8.196h2.765l.411-3.209h-3.176v-2.044c0-.926.258-1.56 1.587-1.56h1.684v-2.861c-.82-.088-1.643-.13-2.467-.127-2.444 0-4.122 1.492-4.122 4.231v2.355h-2.747v3.209h2.753v8.202h3.312Z" fill="currentColor"/>
  </symbol>

  <symbol id="twitterIcon" viewBox="0 0 39 39">
    <path fill-rule="evenodd" clip-rule="evenodd" d="M26.633 14.978c.013.175.013.349.013.523 0 5.325-4.053 11.461-11.46 11.461-2.282 0-4.402-.661-6.186-1.809.324.037.636.05.973.05a8.07 8.07 0 0 0 5.001-1.721 4.036 4.036 0 0 1-3.767-2.793c.249.037.499.062.761.062.361 0 .724-.05 1.061-.137a4.028 4.028 0 0 1-3.23-3.953v-.05c.537.299 1.16.486 1.82.511a4.023 4.023 0 0 1-1.796-3.354c0-.748.199-1.434.548-2.032a11.457 11.457 0 0 0 8.306 4.215c-.062-.3-.1-.611-.1-.923A4.025 4.025 0 0 1 22.605 11c1.16 0 2.207.486 2.943 1.272a7.958 7.958 0 0 0 2.556-.973c-.3.93-.93 1.72-1.771 2.22a8.071 8.071 0 0 0 2.319-.624 8.647 8.647 0 0 1-2.019 2.083Z" fill="currentColor"/>
  </symbol>

  <symbol id="linkedinIcon" viewBox="0 0 39 39">
    <path fill-rule="evenodd" clip-rule="evenodd" d="M27 10H11a1 1 0 0 0-1 1v16a1 1 0 0 0 1 1h16a1 1 0 0 0 1-1V11a1 1 0 0 0-1-1ZM15.339 25.337h-2.672v-8.59h2.672v8.59Zm-1.336-9.763a1.548 1.548 0 1 1 0-3.096 1.548 1.548 0 0 1 0 3.096Zm11.335 9.763h-2.669V21.16c0-.996-.018-2.277-1.388-2.277-1.39 0-1.601 1.086-1.601 2.207v4.248h-2.667v-8.59h2.56v1.174h.037c.355-.675 1.227-1.387 2.524-1.387 2.704 0 3.203 1.778 3.203 4.092v4.71h.001Z" fill="currentColor"/>
  </symbol>
</svg>


